<svg xmlns="http://www.w3.org/2000/svg" height="24px" viewBox="0 0 24 24" width="24px" fill="#4f46e5">
    <path d="M0 0h24v24H0V0z" fill="none"/>
    <path d="M16.5 13c-1.2 0-3.07.34-4.5 1-1.43-.67-3.3-1-4.5-1C5.33 13 1 15.08 1 17.5V20h14v-2.5c0-2.42-4.33-4.5-6.5-4.5zM15 18H3v-.5c0-.99 2.07-2.5 5-2.5s5 1.51 5 2.5V18zm-2.5-11.5c1.93 0 3.5-1.57 3.5-3.5S14.43 0 12.5 0 9 1.57 9 3.5s1.57 3.5 3.5 3.5zM12.5 2c.83 0 1.5.67 1.5 1.5S13.33 5 12.5 5s-1.5-.67-1.5-1.5S11.67 2 12.5 2zM23 17.5c0-2.42-4.33-4.5-6.5-4.5-.76 0-1.78.22-2.65.61 1.11.92 1.83 2.23 1.98 3.69H23v-2.3zM19.5 5c1.93 0 3.5-1.57 3.5-3.5S21.43 0 19.5 0s-3.5 1.57-3.5 3.5c0 .9.37 1.71 1.01 2.3.62-.27 1.29-.4 2-.4.07 0 .14 0 .21.01.07-.01.14-.01.21-.01.23 0 .46.03.68.08.03 0 .05 0 .08 0 .02 0 .05 0 .07 0 .05 0 .1.01.14.02.03 0 .07.01.1.01.22.05.43.12.64.21.2.09.38.19.56.31.8.55 1.32 1.34 1.32 2.28zM19.5 2c.83 0 1.5.67 1.5 1.5S20.33 5 19.5 5s-1.5-.67-1.5-1.5S18.67 2 19.5 2z"/>
</svg>
